<svg width="24" height="24" viewBox="0 0 24 24" fill="none" xmlns="../../../../../../www.w3.org/2000/svg.html">
<path fill-rule="evenodd" clip-rule="evenodd" d="M2 19.5244C2 20.8892 3.04492 22 4.32939 22H18.4941C19.7786 22 20.8235 20.8892 20.8235 19.5244V17H21.4118C21.7369 17 22 16.7205 22 16.375V11.375C22 11.0295 21.7369 10.75 21.4118 10.75H20.8235V8.22559C20.8235 6.86084 19.7786 5.75 18.4941 5.75H18.4706V4.51831C18.4706 3.12915 17.4073 2 16.1004 2H4.35294C3.05526 2 2 3.12183 2 4.5V19.5244ZM20.8235 15.75H16.1176V12H20.8235V15.75ZM19.6471 8.22559V10.75H15.5294C15.2043 10.75 14.9412 11.0295 14.9412 11.375V16.375C14.9412 16.7205 15.2043 17 15.5294 17H19.6471V19.5244C19.6471 20.2007 19.1301 20.75 18.4941 20.75H4.32939C3.69347 20.75 3.17647 20.2007 3.17647 19.5244V6.65225C3.52394 6.86755 3.92246 7 4.35294 7H17.8824H18.4941C19.1301 7 19.6471 7.54932 19.6471 8.22559ZM4.35294 3.25H16.1004C16.7587 3.25 17.2941 3.81885 17.2941 4.51831V5.75H4.35294C3.70439 5.75 3.17647 5.1897 3.17647 4.5C3.17647 3.8103 3.70439 3.25 4.35294 3.25Z" fill="#4C4C4C"/>
</svg>
