<svg width="24" height="24" viewBox="0 0 24 24" fill="none" xmlns="../../../../../../www.w3.org/2000/svg.html">
<path fill-rule="evenodd" clip-rule="evenodd" d="M11.9864 3L14.5 5.91667V18.8229C14.5 19.7491 13.7338 20.5 12.7887 20.5H3.71131C2.76618 20.5 2 19.7491 2 18.8229V4.67708C2 3.75086 2.76618 3 3.71131 3H11.9864ZM11.4698 4.0901H3.71131C3.38051 4.0901 3.11235 4.3529 3.11235 4.67708V18.8229C3.11235 19.1471 3.38051 19.4099 3.71131 19.4099H12.7887C13.1195 19.4099 13.3876 19.1471 13.3876 18.8229V6.31541L11.4698 4.0901ZM19.9686 6.75C21.0313 6.75 21.9161 7.55093 21.9944 8.58569L22 8.73504V16.015C22 17.0707 21.1635 17.9196 20.1191 17.9946L19.9686 18H15.7998V16.9419H19.9686C20.4945 16.9419 20.9146 16.5757 20.9719 16.1213L20.9785 16.015L20.978 14.922L15.7998 14.923V13.2243L20.978 13.224L20.9785 8.73504C20.9785 8.2687 20.5961 7.86918 20.0879 7.81449L19.9686 7.80812H15.75V6.75H19.9686ZM12 16.2065V17.4565H4.5V16.2065H12ZM8.48374 6.04048C8.69011 6.09849 8.83146 6.27479 8.83146 6.47475V8.79661H10.593C10.8486 8.79661 11.0807 8.92868 11.1963 9.13919C11.3129 9.35027 11.2914 9.60217 11.141 9.79389L8.36362 13.3336C8.27107 13.4517 8.12356 13.5207 7.96755 13.5207C7.9162 13.5207 7.86513 13.5133 7.81641 13.4985C7.61464 13.4378 7.47796 13.2636 7.47796 13.0669V11.092H5.69853C5.44841 11.092 5.2191 10.9646 5.10106 10.7601C4.98306 10.5557 4.99606 10.3085 5.13472 10.1154L7.93452 6.22304C8.05429 6.05652 8.27738 5.98187 8.48374 6.04048ZM7.85229 7.97348L6.26266 10.1835L7.96755 10.1844C8.23802 10.1844 8.45713 10.3875 8.45713 10.6382V11.6714L10.0001 9.70505L8.34188 9.70417C8.0714 9.70417 7.85229 9.50109 7.85229 9.25039V7.97348Z" fill="#4C4C4C"/>
</svg>
