<svg width="24" height="24" viewBox="0 0 24 24" fill="none" xmlns="../../../../../../www.w3.org/2000/svg.html">
<path fill-rule="evenodd" clip-rule="evenodd" d="M5.5 16C5.77637 16 6 16.2236 6 16.5V21.5C6 21.7764 5.77637 22 5.5 22C5.22363 22 5 21.7764 5 21.5V16.5C5 16.2236 5.22363 16 5.5 16ZM6.78223 7.86328C8.37451 7.86328 8.97217 8.80957 8.99951 9.62012L9 13.5C9 14.1523 8.58203 14.708 8 14.9141V21.5C8 21.7764 7.77637 22 7.5 22C7.22363 22 7 21.7764 7 21.5V14.5C7 14.2236 7.22363 14 7.5 14C7.77588 14 8 13.7754 8 13.5V9.63672C7.97803 8.99414 7.28809 8.87305 6.83936 8.86426C6.54736 8.93359 5.83545 9.0957 5.52344 9.09766C5.17822 9.0625 4.43311 8.93457 4.12646 8.86426C3.61182 8.87305 3.021 9.02246 2.99951 9.65332L3 13.5C3 13.7754 3.22412 14 3.5 14C3.77637 14 4 14.2236 4 14.5V21.5C4 21.7764 3.77637 22 3.5 22C3.22363 22 3 21.7764 3 21.5V14.9141C2.41797 14.708 2 14.1523 2 13.5V9.63672C2.0293 8.77051 2.61719 7.86328 4.18115 7.86328C4.21924 7.86328 4.25732 7.86719 4.29395 7.87598C4.75537 7.9834 5.34961 8.09766 5.51221 8.09766C5.66895 8.09668 6.23096 7.98242 6.66406 7.87695C6.70312 7.86816 6.74268 7.86328 6.78223 7.86328ZM19.7822 7.86328C21.3745 7.86328 21.9722 8.80957 21.9995 9.62012L22 13.5C22 14.1106 21.6321 14.6351 21.1074 14.8689L21.9849 18.3789C22.0225 18.5283 21.9888 18.6865 21.894 18.8076C21.7993 18.9287 21.6538 19 21.5 19H21V21.5C21 21.7764 20.7764 22 20.5 22C20.2236 22 20 21.7764 20 21.5V19H19V21.5C19 21.7764 18.7764 22 18.5 22C18.2236 22 18 21.7764 18 21.5V19H17V21.5C17 21.7764 16.7764 22 16.5 22C16.2236 22 16 21.7764 16 21.5V19H15.5C15.3462 19 15.2007 18.9287 15.106 18.8076C15.0112 18.6865 14.9775 18.5283 15.0151 18.3789L15.8926 14.8689C15.3679 14.6351 15 14.1106 15 13.5V9.63672C15.0293 8.77051 15.6172 7.86328 17.1812 7.86328C17.2192 7.86328 17.2573 7.86719 17.2939 7.87598C17.7554 7.9834 18.3496 8.09766 18.5122 8.09766C18.6689 8.09668 19.231 7.98242 19.6641 7.87695C19.7031 7.86816 19.7427 7.86328 19.7822 7.86328ZM12.855 13.2549C14.0352 13.2549 14.4785 13.9717 14.4995 14.5859L14.5 17.0225C14.5 17.6729 14.082 18.2285 13.5 18.4336V21.5C13.5 21.7764 13.2764 22 13 22C12.7236 22 12.5 21.7764 12.5 21.5V18.0195C12.5 17.7432 12.7236 17.5195 13 17.5195C13.2759 17.5195 13.5 17.2969 13.5 17.0225V14.6035C13.4907 14.3369 13.186 14.2637 12.9106 14.2559C12.6758 14.3115 12.2324 14.4092 12.0186 14.4111C11.7837 14.4111 11.313 14.3115 11.0674 14.2559C10.5117 14.2715 10.5029 14.5332 10.4995 14.6211L10.5 17.0225C10.5 17.2969 10.7241 17.5195 11 17.5195C11.2764 17.5195 11.5 17.7432 11.5 18.0195V21.5C11.5 21.7764 11.2764 22 11 22C10.7236 22 10.5 21.7764 10.5 21.5V18.4336C9.91797 18.2285 9.5 17.6729 9.5 17.0225V14.6035C9.52148 13.9717 9.9585 13.2549 11.1206 13.2549C11.1587 13.2549 11.1968 13.2588 11.2334 13.2676C11.5586 13.3428 11.9214 13.4102 12.0103 13.4111C12.0923 13.4092 12.4331 13.3428 12.7378 13.2686C12.7759 13.2598 12.8154 13.2549 12.855 13.2549ZM19.8394 8.86426C19.5474 8.93359 18.8354 9.0957 18.5234 9.09766C18.1826 9.0625 17.4331 8.93457 17.1265 8.86426C16.6118 8.87305 16.021 9.02246 15.9995 9.65332L16 13.5C16 13.7754 16.2241 14 16.5 14C16.5215 14 16.5397 14.0096 16.5605 14.0122C16.5809 14.0146 16.6006 14.0098 16.6211 14.0146C16.6343 14.018 16.6439 14.0273 16.6566 14.0316C16.6896 14.0426 16.7186 14.0579 16.7481 14.0753C16.7751 14.0911 16.8008 14.1062 16.824 14.1264C16.8487 14.1478 16.8683 14.1721 16.8884 14.1979C16.9079 14.223 16.9262 14.2471 16.9406 14.2754C16.9548 14.3032 16.9635 14.3323 16.9724 14.3629C16.9819 14.3956 16.9896 14.4273 16.9923 14.4619C16.9933 14.4751 17 14.4865 17 14.5C17 14.5217 16.9904 14.5402 16.9877 14.5612C16.9852 14.5814 16.9899 14.6009 16.9849 14.6211L16.1406 18H20.8594L20.0151 14.6211C20.0101 14.6009 20.0148 14.5814 20.0123 14.5612C20.0096 14.5402 20 14.5217 20 14.5L20.0077 14.4619C20.0104 14.4273 20.0181 14.3956 20.0276 14.3629C20.0365 14.3323 20.0452 14.3032 20.0594 14.2754C20.0738 14.2471 20.0921 14.223 20.1116 14.1979C20.1317 14.1721 20.1513 14.1478 20.176 14.1264C20.1992 14.1062 20.2249 14.0911 20.2519 14.0753C20.2814 14.0579 20.3104 14.0426 20.3434 14.0316C20.3561 14.0273 20.3657 14.018 20.3789 14.0146C20.3991 14.0099 20.4186 14.0146 20.4387 14.0123C20.4597 14.0096 20.4783 14 20.5 14C20.7759 14 21 13.7754 21 13.5V9.63672C20.978 8.99414 20.2881 8.87305 19.8394 8.86426ZM11.999 7.96582C12.6128 7.96582 13.2295 8.24316 13.6079 8.69043C13.9248 9.06445 14.0562 9.52832 13.978 9.99707L13.7949 11.4277C13.6519 12.3447 12.9312 12.9512 11.999 12.9512C11.0679 12.9512 10.3481 12.3447 10.207 11.4414L10.0195 9.97852C9.94385 9.52832 10.0752 9.06348 10.3921 8.68945C10.77 8.24316 11.3857 7.96582 11.999 7.96582ZM11.999 8.96582C11.6768 8.96582 11.3457 9.11133 11.1553 9.33594C11.0278 9.48535 10.979 9.65332 11.0088 9.83301L11.1973 11.3008C11.2593 11.6963 11.5669 11.9512 11.999 11.9512C12.4321 11.9512 12.7407 11.6963 12.8047 11.2871L12.9888 9.85156C13.0215 9.65332 12.9722 9.48633 12.8447 9.33691C12.6543 9.11133 12.3223 8.96582 11.999 8.96582ZM18.4985 2C19.1538 2 19.8115 2.2959 20.2153 2.77344C20.5518 3.16992 20.6914 3.66211 20.6084 4.15918L20.4092 5.7168C20.2568 6.69043 19.4902 7.33594 18.4985 7.33594C17.5088 7.33594 16.7432 6.69043 16.5928 5.73047L16.3887 4.14062C16.3086 3.66113 16.4482 3.16895 16.7847 2.77148C17.188 2.2959 17.8447 2 18.4985 2ZM5.49854 2C6.15381 2 6.81152 2.2959 7.21533 2.77344C7.55176 3.16992 7.69141 3.66211 7.6084 4.15918L7.40918 5.7168C7.25684 6.69043 6.49023 7.33594 5.49854 7.33594C4.50879 7.33594 3.74316 6.69043 3.59277 5.73047L3.38867 4.14062C3.30859 3.66113 3.44824 3.16895 3.78467 2.77148C4.18799 2.2959 4.84473 2 5.49854 2ZM18.4985 3C18.1362 3 17.7627 3.16406 17.5479 3.41797C17.4004 3.5918 17.3433 3.78613 17.3779 3.99512L17.583 5.58984C17.6543 6.04492 18.0059 6.33594 18.4985 6.33594C18.9932 6.33594 19.3457 6.04492 19.4189 5.57617L19.6191 4.01367C19.6567 3.78711 19.5996 3.59277 19.4526 3.41895C19.2368 3.16504 18.8623 3 18.4985 3ZM5.49854 3C5.13623 3 4.7627 3.16406 4.54785 3.41797C4.40039 3.5918 4.34326 3.78613 4.37793 3.99512L4.58301 5.58984C4.6543 6.04492 5.00586 6.33594 5.49854 6.33594C5.99316 6.33594 6.3457 6.04492 6.41895 5.57617L6.61914 4.01367C6.65674 3.78711 6.59961 3.59277 6.45264 3.41895C6.23682 3.16504 5.8623 3 5.49854 3Z" fill="#4C4C4C"/>
</svg>
