<svg width="25" height="24" viewBox="0 0 25 24" fill="none" xmlns="../../../../../../www.w3.org/2000/svg.html">
<path fill-rule="evenodd" clip-rule="evenodd" d="M8.80078 3.43034C9.96094 2.37517 11.4653 1.87517 13.0386 2.02653C15.8208 2.29167 18 4.79069 18 7.7155V11.9948H18.4912C19.5986 11.9948 20.5 12.8962 20.5 14.0036V18.0221C20.5 20.2126 18.7178 21.9948 16.5269 21.9948H8.47314C6.28223 21.9948 4.5 20.2126 4.5 18.0221V14.0036C4.5 12.8962 5.40137 11.9948 6.50879 11.9948H7V7.50066C7 5.95476 7.65625 4.47087 8.80078 3.43034ZM18.4912 12.9948H6.50879C5.95264 12.9948 5.5 13.4474 5.5 14.0036V18.0221C5.5 19.6613 6.83398 20.9948 8.47314 20.9948H16.5269C18.166 20.9948 19.5 19.6613 19.5 18.0221V14.0036C19.5 13.4474 19.0474 12.9948 18.4912 12.9948ZM12.5 17.9948C12.7764 17.9948 13 18.2184 13 18.4948V19.4948C13 19.7712 12.7764 19.9948 12.5 19.9948C12.2236 19.9948 12 19.7712 12 19.4948V18.4948C12 18.2184 12.2236 17.9948 12.5 17.9948ZM12.5 13.9948C12.7764 13.9948 13 14.2184 13 14.4948V16.4948C13 16.7712 12.7764 16.9948 12.5 16.9948C12.2236 16.9948 12 16.7712 12 16.4948V14.4948C12 14.2184 12.2236 13.9948 12.5 13.9948ZM12.9438 3.02165C11.6567 2.903 10.4238 3.30681 9.47363 4.17009C8.53711 5.02165 8 6.23552 8 7.50066V11.9948H9V7.4948C9 5.56511 10.5703 3.9948 12.5 3.9948C14.4297 3.9948 16 5.56511 16 7.4948V11.9948H17V7.7155C17 5.30046 15.2183 3.23894 12.9438 3.02165ZM12.5 4.9948C11.1216 4.9948 10 6.11638 10 7.4948V11.9948H15V7.4948C15 6.11638 13.8784 4.9948 12.5 4.9948Z" fill="#4C4C4C"/>
</svg>
