<svg width="32" height="32" viewBox="0 0 32 32" fill="none" xmlns="../../../../../../www.w3.org/2000/svg.html">
<path fill-rule="evenodd" clip-rule="evenodd" d="M2.66669 26.0325C2.66669 27.8522 4.05992 29.3333 5.77254 29.3333H24.6589C26.3715 29.3333 27.7647 27.8522 27.7647 26.0325V22.6666H28.549C28.9826 22.6666 29.3334 22.2939 29.3334 21.8333V15.1666C29.3334 14.706 28.9826 14.3333 28.549 14.3333H27.7647V10.9674C27.7647 9.14775 26.3715 7.66663 24.6589 7.66663H24.6275V6.02437C24.6275 4.17216 23.2097 2.66663 21.4672 2.66663H5.80394C4.0737 2.66663 2.66669 4.16239 2.66669 5.99996V26.0325ZM27.7647 21H21.4902V16H27.7647V21ZM26.1961 10.9674V14.3333H20.7059C20.2724 14.3333 19.9216 14.706 19.9216 15.1666V21.8333C19.9216 22.2939 20.2724 22.6666 20.7059 22.6666H26.1961V26.0325C26.1961 26.9342 25.5068 27.6666 24.6589 27.6666H5.77254C4.92465 27.6666 4.23531 26.9342 4.23531 26.0325V8.86963C4.69861 9.1567 5.22997 9.33329 5.80394 9.33329H23.8432H24.6589C25.5068 9.33329 26.1961 10.0657 26.1961 10.9674ZM5.80394 4.33329H21.4672C22.345 4.33329 23.0588 5.09176 23.0588 6.02437V7.66663H5.80394C4.93921 7.66663 4.23531 6.91956 4.23531 5.99996C4.23531 5.08036 4.93921 4.33329 5.80394 4.33329Z" fill="#EC0000"/>
</svg>
