<svg id="Capa_1" data-name="Capa 1" xmlns="http://www.w3.org/2000/svg" viewBox="0 0 56.67 60.52"><defs><style>.cls-1{fill:#1aade5;}.cls-2{fill:#245ba7;}.cls-3{fill:#fff;}</style></defs><title>consulta_express</title><rect class="cls-1" x="54.14" y="7.51" width="2.53" height="10.11" rx="0.51"/><rect class="cls-1" x="54.14" y="18.88" width="2.53" height="5.06" rx="0.51"/><rect class="cls-2" x="19.73" width="35.22" height="60.52" rx="5.56"/><rect class="cls-3" x="22.18" y="4.33" width="30.31" height="51.87" rx="3.11"/><rect class="cls-3" x="34.08" y="1.82" width="6.52" height="1.27" rx="0.63"/><rect class="cls-3" x="34.08" y="57.75" width="6.52" height="1.27" rx="0.63"/><circle class="cls-3" cx="42.13" cy="2.45" r="0.63"/><circle class="cls-3" cx="32.52" cy="2.45" r="0.63"/><path class="cls-2" d="M41.28,16H5.69A3.69,3.69,0,0,0,2,19.73V50.17l7.58-5.06h31.7A3.69,3.69,0,0,0,45,41.42V19.73A3.69,3.69,0,0,0,41.28,16Z" transform="translate(-2 -0.24)"/></svg>