<?xml version="1.0" encoding="UTF-8"?>
<svg width="73px" height="25px" viewBox="0 0 73 25" version="1.1" xmlns="http://www.w3.org/2000/svg" xmlns:xlink="http://www.w3.org/1999/xlink">
    <!-- Generator: Sketch 49 (51002) - http://www.bohemiancoding.com/sketch -->
    <title>logo_google_play</title>
    <desc>Created with Sketch.</desc>
    <defs></defs>
    <g id="Final" stroke="none" stroke-width="1" fill="none" fill-rule="evenodd">
        <g id="logo_google_play" transform="translate(1.000000, 0.000000)">
            <path d="M70.9045,20.6671 C70.9045,22.3921 69.5065,23.7911 67.7805,23.7911 L3.3545,23.7911 C1.6285,23.7911 0.2295,22.3921 0.2295,20.6671 L0.2295,3.7971 C0.2295,2.0721 1.6285,0.6731 3.3545,0.6731 L67.7805,0.6731 C69.5065,0.6731 70.9045,2.0721 70.9045,3.7971 L70.9045,20.6671 Z" id="Fill-1"></path>
            <path d="M70.9045,20.6671 C70.9045,22.3921 69.5065,23.7911 67.7805,23.7911 L3.3545,23.7911 C1.6285,23.7911 0.2295,22.3921 0.2295,20.6671 L0.2295,3.7971 C0.2295,2.0721 1.6285,0.6731 3.3545,0.6731 L67.7805,0.6731 C69.5065,0.6731 70.9045,2.0721 70.9045,3.7971 L70.9045,20.6671 Z" id="Stroke-3" stroke="#0070C6" stroke-width="0.5"></path>
            <path d="M55.1325,11.818 C54.6675,11.818 54.3305,11.947 54.1235,12.204 C53.9155,12.462 53.8085,12.872 53.8035,13.434 L53.8035,13.588 C53.8035,14.228 53.9095,14.685 54.1235,14.961 C54.3365,15.236 54.6785,15.374 55.1495,15.374 C55.5425,15.374 55.8505,15.215 56.0735,14.896 C56.2965,14.578 56.4085,14.139 56.4085,13.579 C56.4085,13.012 56.2965,12.576 56.0735,12.273 C55.8505,11.97 55.5365,11.818 55.1325,11.818 M55.2325,15.951 C54.9355,15.951 54.6655,15.897 54.4205,15.787 C54.1755,15.678 53.9695,15.51 53.8035,15.283 L53.7535,15.283 C53.7865,15.549 53.8035,15.801 53.8035,16.039 L53.8035,17.912 L53.1135,17.912 L53.1135,11.315 L53.6745,11.315 L53.7695,11.938 L53.8035,11.938 C53.9805,11.689 54.1865,11.509 54.4225,11.398 C54.6575,11.288 54.9275,11.232 55.2325,11.232 C55.8365,11.232 56.3025,11.439 56.6305,11.851 C56.9585,12.264 57.1225,12.843 57.1225,13.588 C57.1225,14.336 56.9555,14.916 56.6225,15.331 C56.2885,15.744 55.8255,15.951 55.2325,15.951" id="Fill-5" fill="#0070C5"></path>
            <polygon id="Fill-7" fill="#0070C5" points="58.029 15.8684 58.719 15.8684 58.719 9.4044 58.029 9.4044"></polygon>
            <path d="M61.1261,15.3824 C61.5551,15.3824 61.8921,15.2644 62.1371,15.0294 C62.3821,14.7944 62.5051,14.4644 62.5051,14.0404 L62.5051,13.6294 L61.8151,13.6584 C61.2671,13.6774 60.8721,13.7624 60.6291,13.9144 C60.3871,14.0644 60.2661,14.2994 60.2661,14.6184 C60.2661,14.8674 60.3411,15.0574 60.4921,15.1874 C60.6431,15.3174 60.8541,15.3824 61.1261,15.3824 Z M62.6841,15.8684 L62.5471,15.2204 L62.5131,15.2204 C62.2861,15.5054 62.0601,15.6994 61.8341,15.7994 C61.6081,15.9014 61.3271,15.9514 60.9891,15.9514 C60.5371,15.9514 60.1841,15.8354 59.9271,15.6024 C59.6711,15.3694 59.5431,15.0394 59.5431,14.6094 C59.5431,13.6904 60.2781,13.2084 61.7491,13.1644 L62.5221,13.1394 L62.5221,12.8564 C62.5221,12.4994 62.4451,12.2354 62.2911,12.0654 C62.1371,11.8944 61.8911,11.8094 61.5541,11.8094 C61.1741,11.8094 60.7451,11.9264 60.2661,12.1584 L60.0541,11.6314 C60.2781,11.5094 60.5241,11.4134 60.7911,11.3444 C61.0591,11.2754 61.3271,11.2404 61.5951,11.2404 C62.1381,11.2404 62.5401,11.3614 62.8021,11.6024 C63.0641,11.8434 63.1951,12.2294 63.1951,12.7614 L63.1951,15.8684 L62.6841,15.8684 Z" id="Fill-9" fill="#0070C5"></path>
            <path d="M63.595,11.3153 L64.334,11.3153 L65.331,13.9113 C65.55,14.5043 65.686,14.9323 65.739,15.1953 L65.772,15.1953 C65.808,15.0543 65.883,14.8123 65.998,14.4703 C66.113,14.1283 66.489,13.0763 67.126,11.3153 L67.866,11.3153 L65.909,16.4993 C65.715,17.0123 65.489,17.3753 65.229,17.5903 C64.971,17.8053 64.653,17.9123 64.276,17.9123 C64.066,17.9123 63.858,17.8883 63.653,17.8413 L63.653,17.2893 C63.805,17.3223 63.976,17.3393 64.164,17.3393 C64.638,17.3393 64.975,17.0733 65.178,16.5413 L65.431,15.8933 L63.595,11.3153 Z" id="Fill-10" fill="#0070C5"></path>
            <path d="M42.058,14.1572 C42.277,13.9382 42.295,13.6332 42.295,13.4622 C42.295,12.7762 41.886,11.7102 41.096,11.7102 C40.848,11.7102 40.582,11.8332 40.429,12.0242 C40.268,12.2242 40.22,12.4812 40.22,12.7292 C40.22,13.3672 40.591,14.4242 41.41,14.4242 C41.648,14.4242 41.905,14.3092 42.058,14.1572 Z M41.782,15.9672 C41.706,15.9572 41.658,15.9572 41.563,15.9572 C41.477,15.9572 40.962,15.9762 40.563,16.1102 C40.353,16.1852 39.744,16.4142 39.744,17.0912 C39.744,17.7662 40.401,18.2532 41.42,18.2532 C42.334,18.2532 42.82,17.8142 42.82,17.2242 C42.82,16.7372 42.506,16.4812 41.782,15.9672 Z M42.458,11.7382 C42.677,11.9192 43.134,12.3002 43.134,13.0242 C43.134,13.7282 42.734,14.0622 42.334,14.3762 C42.21,14.5002 42.067,14.6342 42.067,14.8432 C42.067,15.0522 42.21,15.1672 42.315,15.2522 L42.658,15.5192 C43.077,15.8712 43.458,16.1952 43.458,16.8522 C43.458,17.7472 42.591,18.6522 40.953,18.6522 C39.572,18.6522 38.906,17.9952 38.906,17.2902 C38.906,16.9472 39.077,16.4622 39.639,16.1282 C40.229,15.7662 41.03,15.7192 41.458,15.6902 C41.324,15.5192 41.172,15.3382 41.172,15.0432 C41.172,14.8812 41.22,14.7862 41.267,14.6712 C41.162,14.6812 41.058,14.6902 40.962,14.6902 C39.953,14.6902 39.382,13.9382 39.382,13.1952 C39.382,12.7572 39.582,12.2712 39.991,11.9192 C40.534,11.4722 41.182,11.3952 41.696,11.3952 L43.658,11.3952 L43.048,11.7382 L42.458,11.7382 Z" id="Fill-11" fill="#0070C5"></path>
            <path d="M37.6509,15.0444 C37.8799,14.7404 37.9369,14.3594 37.9369,13.9884 C37.9369,13.1514 37.5369,11.5544 36.3579,11.5544 C36.0449,11.5544 35.7309,11.6784 35.5029,11.8784 C35.1319,12.2114 35.0649,12.6294 35.0649,13.0384 C35.0649,13.9794 35.5309,15.5284 36.6819,15.5284 C37.0519,15.5284 37.4329,15.3484 37.6509,15.0444 M36.4629,15.8144 C34.9509,15.8144 34.1429,14.6354 34.1429,13.5704 C34.1429,12.3244 35.1599,11.2604 36.6059,11.2604 C38.0029,11.2604 38.8779,12.3534 38.8779,13.5044 C38.8779,14.6254 38.0129,15.8144 36.4629,15.8144" id="Fill-12" fill="#0070C5"></path>
            <path d="M32.4978,15.0444 C32.7258,14.7404 32.7828,14.3594 32.7828,13.9884 C32.7828,13.1514 32.3838,11.5544 31.2048,11.5544 C30.8908,11.5544 30.5768,11.6784 30.3488,11.8784 C29.9778,12.2114 29.9118,12.6294 29.9118,13.0384 C29.9118,13.9794 30.3778,15.5284 31.5288,15.5284 C31.8988,15.5284 32.2788,15.3484 32.4978,15.0444 M31.3088,15.8144 C29.7978,15.8144 28.9888,14.6354 28.9888,13.5704 C28.9888,12.3244 30.0068,11.2604 31.4518,11.2604 C32.8498,11.2604 33.7238,12.3534 33.7238,13.5044 C33.7238,14.6254 32.8588,15.8144 31.3088,15.8144" id="Fill-13" fill="#0070C5"></path>
            <path d="M28.263,15.6654 L26.896,15.9814 C26.341,16.0674 25.844,16.1434 25.319,16.1434 C22.68,16.1434 21.677,14.2024 21.677,12.6824 C21.677,10.8284 23.101,9.1084 25.539,9.1084 C26.055,9.1084 26.552,9.1844 27.001,9.3084 C27.718,9.5094 28.053,9.7574 28.263,9.9014 L27.469,10.6564 L27.135,10.7324 L27.374,10.3504 C27.049,10.0354 26.456,9.4524 25.328,9.4524 C23.818,9.4524 22.68,10.5994 22.68,12.2724 C22.68,14.0684 23.981,15.7604 26.064,15.7604 C26.676,15.7604 26.991,15.6364 27.278,15.5214 L27.278,13.9834 L25.835,14.0594 L26.599,13.6484 L28.626,13.6484 L28.378,13.8864 C28.31,13.9444 28.301,13.9634 28.282,14.0394 C28.272,14.1254 28.263,14.4034 28.263,14.4984 L28.263,15.6654 Z" id="Fill-14" fill="#0070C5"></path>
            <path d="M45.4792,15.3902 C45.1632,15.3612 45.0972,15.3042 45.0972,14.9312 L45.0972,14.8262 L45.0972,9.5212 C45.0992,9.5002 45.1012,9.4792 45.1032,9.4592 C45.1412,9.1252 45.2372,9.0672 45.5332,8.8952 L44.1662,8.8952 L43.4492,9.2392 L44.1792,9.2392 L44.1792,9.2442 L44.1792,9.2402 L44.1792,14.8262 L44.1792,15.1422 C44.1792,15.3322 44.1412,15.3612 43.9212,15.6482 L45.6132,15.6482 L45.9672,15.4382 C45.8042,15.4182 45.6422,15.4092 45.4792,15.3902" id="Fill-15" fill="#0070C5"></path>
            <path d="M48.4769,12.6488 C48.6569,12.5828 48.7519,12.5258 48.7519,12.3928 C48.7519,12.0128 48.3249,11.5758 47.8119,11.5758 C47.4319,11.5758 46.7199,11.8708 46.7199,12.8958 C46.7199,13.0568 46.7389,13.2278 46.7489,13.3988 L48.4769,12.6488 Z M49.3689,15.4778 C49.2649,15.5348 49.1599,15.6018 49.0559,15.6488 C48.7429,15.7918 48.4199,15.8298 48.1349,15.8298 C47.8319,15.8298 47.3569,15.8098 46.8719,15.4588 C46.1989,14.9838 45.9039,14.1678 45.9039,13.4558 C45.9039,11.9848 47.0999,11.2628 48.0779,11.2628 C48.4199,11.2628 48.7719,11.3488 49.0559,11.5288 C49.5309,11.8418 49.6539,12.2498 49.7199,12.4688 L47.4899,13.3708 L46.7589,13.4278 C46.9959,14.6328 47.8119,15.3348 48.7139,15.3348 C49.1979,15.3348 49.5499,15.1648 49.8719,15.0038 L49.3689,15.4778 Z" id="Fill-16" fill="#0070C5"></path>
            <polygon id="Fill-17" fill="#FAFAFA" points="50.2852 11.3281 50.2852 11.9541 50.2092 11.9541 50.2092 11.3281 50.0022 11.3281 50.0022 11.2631 50.4922 11.2631 50.4922 11.3281"></polygon>
            <polygon id="Fill-18" fill="#FAFAFA" points="51.139 11.9545 51.139 11.3225 51.135 11.3225 50.943 11.9545 50.883 11.9545 50.688 11.3225 50.686 11.3225 50.686 11.9545 50.617 11.9545 50.617 11.2635 50.735 11.2635 50.911 11.8215 50.914 11.8215 51.087 11.2635 51.207 11.2635 51.207 11.9545"></polygon>
            <path d="M22.1338,6.9539 C22.2098,6.9679 22.3208,6.9719 22.4378,6.9719 C23.0808,6.9719 23.4298,6.6119 23.4298,5.9829 C23.4338,5.4339 23.1228,5.0839 22.4858,5.0839 C22.3308,5.0839 22.2138,5.0989 22.1338,5.1149 L22.1338,6.9539 Z M21.8328,4.8939 C22.0168,4.8669 22.2338,4.8459 22.4728,4.8459 C22.9048,4.8459 23.2118,4.9459 23.4158,5.1359 C23.6238,5.3269 23.7448,5.5959 23.7448,5.9729 C23.7448,6.3529 23.6268,6.6639 23.4098,6.8779 C23.1918,7.0959 22.8318,7.2129 22.3788,7.2129 C22.1648,7.2129 21.9848,7.2029 21.8328,7.1859 L21.8328,4.8939 Z" id="Fill-19" fill="#0070C5"></path>
            <path d="M24.175,7.1924 L24.479,7.1924 L24.479,5.5194 L24.175,5.5194 L24.175,7.1924 Z M24.514,5.0494 C24.517,5.1534 24.441,5.2364 24.32,5.2364 C24.213,5.2364 24.137,5.1534 24.137,5.0494 C24.137,4.9424 24.217,4.8594 24.327,4.8594 C24.441,4.8594 24.514,4.9424 24.514,5.0494 Z" id="Fill-20" fill="#0070C5"></path>
            <path d="M24.994,6.8818 C25.084,6.9398 25.243,7.0028 25.395,7.0028 C25.616,7.0028 25.72,6.8918 25.72,6.7538 C25.72,6.6088 25.633,6.5288 25.409,6.4458 C25.108,6.3388 24.966,6.1728 24.966,5.9728 C24.966,5.7028 25.184,5.4818 25.544,5.4818 C25.713,5.4818 25.862,5.5298 25.955,5.5848 L25.879,5.8068 C25.813,5.7648 25.692,5.7098 25.537,5.7098 C25.357,5.7098 25.257,5.8138 25.257,5.9378 C25.257,6.0758 25.357,6.1388 25.575,6.2218 C25.865,6.3318 26.014,6.4768 26.014,6.7258 C26.014,7.0198 25.785,7.2268 25.388,7.2268 C25.205,7.2268 25.035,7.1818 24.918,7.1128 L24.994,6.8818 Z" id="Fill-21" fill="#0070C5"></path>
            <path d="M26.7558,6.5115 C26.7558,6.5565 26.7628,6.5975 26.7698,6.6365 C26.8248,6.8465 27.0078,6.9925 27.2258,6.9925 C27.5468,6.9925 27.7338,6.7295 27.7338,6.3465 C27.7338,6.0105 27.5578,5.7235 27.2358,5.7235 C27.0288,5.7235 26.8358,5.8725 26.7768,6.1005 C26.7658,6.1385 26.7558,6.1835 26.7558,6.2255 L26.7558,6.5115 Z M26.4548,6.0655 C26.4548,5.8515 26.4478,5.6785 26.4408,5.5195 L26.7148,5.5195 L26.7278,5.8065 L26.7348,5.8065 C26.8598,5.6025 27.0568,5.4815 27.3298,5.4815 C27.7338,5.4815 28.0378,5.8245 28.0378,6.3325 C28.0378,6.9335 27.6718,7.2305 27.2778,7.2305 C27.0568,7.2305 26.8628,7.1335 26.7628,6.9675 L26.7558,6.9675 L26.7558,7.8765 L26.4548,7.8765 L26.4548,6.0655 Z" id="Fill-22" fill="#0070C5"></path>
            <path d="M28.6593,6.3598 C28.6593,6.7258 28.8703,7.0028 29.1673,7.0028 C29.4573,7.0028 29.6753,6.7298 29.6753,6.3528 C29.6753,6.0688 29.5333,5.7098 29.1743,5.7098 C28.8143,5.7098 28.6593,6.0418 28.6593,6.3598 M29.9863,6.3418 C29.9863,6.9608 29.5583,7.2308 29.1533,7.2308 C28.7003,7.2308 28.3513,6.8988 28.3513,6.3698 C28.3513,5.8098 28.7183,5.4818 29.1813,5.4818 C29.6613,5.4818 29.9863,5.8308 29.9863,6.3418" id="Fill-23" fill="#0070C5"></path>
            <path d="M30.4207,5.9725 C30.4207,5.7995 30.4177,5.6575 30.4067,5.5195 L30.6767,5.5195 L30.6937,5.7965 L30.7007,5.7965 C30.7837,5.6375 30.9767,5.4815 31.2537,5.4815 C31.4857,5.4815 31.8447,5.6195 31.8447,6.1935 L31.8447,7.1925 L31.5407,7.1925 L31.5407,6.2285 C31.5407,5.9585 31.4407,5.7335 31.1537,5.7335 C30.9527,5.7335 30.7977,5.8765 30.7457,6.0455 C30.7317,6.0825 30.7247,6.1345 30.7247,6.1865 L30.7247,7.1925 L30.4207,7.1925 L30.4207,5.9725 Z" id="Fill-24" fill="#0070C5"></path>
            <path d="M32.39,7.1924 L32.694,7.1924 L32.694,5.5194 L32.39,5.5194 L32.39,7.1924 Z M32.728,5.0494 C32.732,5.1534 32.656,5.2364 32.535,5.2364 C32.428,5.2364 32.352,5.1534 32.352,5.0494 C32.352,4.9424 32.431,4.8594 32.542,4.8594 C32.656,4.8594 32.728,4.9424 32.728,5.0494 Z" id="Fill-25" fill="#0070C5"></path>
            <path d="M33.5508,6.5221 C33.5508,6.5601 33.5578,6.5981 33.5648,6.6321 C33.6238,6.8431 33.7998,6.9891 34.0208,6.9891 C34.3388,6.9891 34.5288,6.7291 34.5288,6.3461 C34.5288,6.0111 34.3558,5.7241 34.0308,5.7241 C33.8238,5.7241 33.6308,5.8651 33.5678,6.0971 C33.5608,6.1321 33.5508,6.1731 33.5508,6.2211 L33.5508,6.5221 Z M33.2358,7.1931 C33.2428,7.0781 33.2498,6.9091 33.2498,6.7611 L33.2498,4.7391 L33.5508,4.7391 L33.5508,5.7891 L33.5578,5.7891 C33.6648,5.6031 33.8588,5.4821 34.1278,5.4821 C34.5428,5.4821 34.8368,5.8271 34.8328,6.3351 C34.8328,6.9331 34.4558,7.2311 34.0828,7.2311 C33.8408,7.2311 33.6478,7.1371 33.5228,6.9161 L33.5128,6.9161 L33.4988,7.1931 L33.2358,7.1931 Z" id="Fill-26" fill="#0070C5"></path>
            <polygon id="Fill-27" fill="#0070C5" points="35.267 7.1924 35.571 7.1924 35.571 4.7384 35.267 4.7384"></polygon>
            <path d="M37.1956,6.1938 C37.1986,5.9998 37.1156,5.6998 36.7736,5.6998 C36.4656,5.6998 36.3316,5.9828 36.3066,6.1938 L37.1956,6.1938 Z M36.3036,6.4108 C36.3106,6.8228 36.5726,6.9918 36.8776,6.9918 C37.0956,6.9918 37.2266,6.9538 37.3406,6.9058 L37.3926,7.1238 C37.2856,7.1718 37.1026,7.2268 36.8356,7.2268 C36.3206,7.2268 36.0136,6.8888 36.0136,6.3838 C36.0136,5.8788 36.3106,5.4818 36.7976,5.4818 C37.3446,5.4818 37.4896,5.9618 37.4896,6.2698 C37.4896,6.3318 37.4816,6.3808 37.4786,6.4108 L36.3036,6.4108 Z" id="Fill-28" fill="#0070C5"></path>
            <path d="M39.7623,6.1938 C39.7653,5.9998 39.6823,5.6998 39.3403,5.6998 C39.0333,5.6998 38.8983,5.9828 38.8733,6.1938 L39.7623,6.1938 Z M38.8703,6.4108 C38.8773,6.8228 39.1403,6.9918 39.4443,6.9918 C39.6623,6.9918 39.7933,6.9538 39.9073,6.9058 L39.9593,7.1238 C39.8523,7.1718 39.6693,7.2268 39.4023,7.2268 C38.8873,7.2268 38.5803,6.8888 38.5803,6.3838 C38.5803,5.8788 38.8773,5.4818 39.3643,5.4818 C39.9113,5.4818 40.0563,5.9618 40.0563,6.2698 C40.0563,6.3318 40.0483,6.3808 40.0453,6.4108 L38.8703,6.4108 Z" id="Fill-29" fill="#0070C5"></path>
            <path d="M40.4836,5.9725 C40.4836,5.7995 40.4806,5.6575 40.4696,5.5195 L40.7396,5.5195 L40.7566,5.7965 L40.7636,5.7965 C40.8466,5.6375 41.0396,5.4815 41.3166,5.4815 C41.5486,5.4815 41.9076,5.6195 41.9076,6.1935 L41.9076,7.1925 L41.6036,7.1925 L41.6036,6.2285 C41.6036,5.9585 41.5036,5.7335 41.2166,5.7335 C41.0166,5.7335 40.8606,5.8765 40.8086,6.0455 C40.7946,6.0825 40.7886,6.1345 40.7886,6.1865 L40.7886,7.1925 L40.4836,7.1925 L40.4836,5.9725 Z" id="Fill-30" fill="#0070C5"></path>
            <path d="M18.7912,13.0325 L5.7392,20.5675 C5.6522,20.6185 5.5432,20.5555 5.5432,20.4545 L5.5432,5.3835 C5.5432,5.2825 5.6522,5.2195 5.7392,5.2695 L18.7912,12.8055 C18.8782,12.8555 18.8782,12.9825 18.7912,13.0325" id="Fill-31" fill="#FFFFFF"></path>
            <path d="M18.7912,13.0325 L5.7392,20.5675 C5.6522,20.6185 5.5432,20.5555 5.5432,20.4545 L5.5432,5.3835 C5.5432,5.2825 5.6522,5.2195 5.7392,5.2695 L18.7912,12.8055 C18.8782,12.8555 18.8782,12.9825 18.7912,13.0325 Z" id="Stroke-32" stroke="#0070C5"></path>
            <g id="Group-35" transform="translate(5.000000, 4.723400)">
                <path d="M0.6084,0.5465 L10.5044,10.3115" id="Fill-33" fill="#FFFFFF"></path>
                <path d="M0.6084,0.5465 L10.5044,10.3115" id="Stroke-34" stroke="#0070C5"></path>
            </g>
            <g id="Group-38" transform="translate(5.000000, 10.723400)">
                <path d="M10.546,0.0651 L0.753,9.8581" id="Fill-36" fill="#FFFFFF"></path>
                <path d="M10.546,0.0651 L0.753,9.8581" id="Stroke-37" stroke="#0070C5"></path>
            </g>
        </g>
    </g>
</svg>