<?xml version="1.0" encoding="UTF-8"?>
<svg width="296px" height="50px" viewBox="0 0 296 50" version="1.1" xmlns="http://www.w3.org/2000/svg" xmlns:xlink="http://www.w3.org/1999/xlink">
    <!-- Generator: Sketch 49 (51002) - http://www.bohemiancoding.com/sketch -->
    <title>Logo</title>
    <desc>Created with Sketch.</desc>
    <defs>
        <polygon id="path-1" points="0 0 68 0 68 50 0 50"></polygon>
    </defs>
    <g id="Final" stroke="none" stroke-width="1" fill="none" fill-rule="evenodd">
        <g id="login1" transform="translate(-61.000000, -9.000000)">
            <g id="Group-18">
                <g id="Logo" transform="translate(61.213203, 9.000000)">
                    <g id="logo">
                        <g id="Group-23" fill="#006FB9">
                            <path d="M2.12578251,0 C0.954164002,0 0,0.921035846 0,2.05766042 L0,47.9410639 C0,49.0789642 0.954164002,50 2.12578251,50 L65.8742175,50 C67.045836,50 68,49.0789642 68,47.9410639 L68,2.05766042 C68,0.921035846 67.045836,0 65.8742175,0 L2.12578251,0 Z" id="Fill-1"></path>
                            <g id="Group" transform="translate(80.000000, 9.000000)">
                                <path d="M112.055435,25.6182817 L111.997415,25.6182817 L111.921542,25.6182817 C108.0788,25.6182817 105.463414,22.6770887 105.463414,19.0664285 C105.463414,15.4914731 108.0788,12.5145752 111.921542,12.5145752 L111.997415,12.5145752 L112.055435,12.5145752 C115.880325,12.5145752 118.531416,15.4914731 118.531416,19.0664285 C118.531416,22.6770887 115.880325,25.6182817 112.055435,25.6182817 M111.997415,7.98451324 C105.708885,7.98451324 100.504893,12.4877966 100.482577,19.0664285 C100.504893,25.6584497 105.708885,30.1617331 111.997415,30.1617331 C118.254702,30.1617331 123.449769,25.6584497 123.449769,19.0664285 C123.449769,12.4877966 118.254702,7.98451324 111.997415,7.98451324" id="Fill-27"></path>
                                <path d="M95.6414363,21.717519 C93.7446123,23.9713922 90.8837554,25.4174415 87.7238698,25.4174415 C81.9887666,25.4174415 77.3783686,20.7936541 77.3783686,15.0808665 C77.3783686,9.37254209 81.9887666,4.762144 87.7238698,4.762144 C90.8569767,4.762144 93.6732024,6.15909909 95.552174,8.36834115 L99.1717605,5.23969734 C96.3510716,2.01732811 92.1914482,0 87.5364189,0 C79.0386474,0 72.1743761,6.72591473 72.1743761,15.0808665 C72.1743761,23.4179659 79.0386474,30.1617331 87.5364189,30.1617331 C92.2271531,30.1617331 96.404629,28.1042369 99.2119285,24.855089 L95.6414363,21.717519 Z" id="Fill-29"></path>
                                <path d="M136.885977,25.6182817 L136.83242,25.6182817 L136.765473,25.6182817 C132.913805,25.6182817 130.27164,22.6592363 130.27164,19.0664285 C130.27164,15.4736207 132.913805,12.4877966 136.765473,12.4877966 L136.83242,12.4877966 L136.885977,12.4877966 C140.71533,12.4877966 143.357494,15.4736207 143.357494,19.0664285 C143.357494,22.6592363 140.71533,25.6182817 136.885977,25.6182817 M136.83242,7.9443452 C130.539427,7.9443452 125.322046,12.4877966 125.322046,19.0664285 L125.322046,39.2530989 L130.27164,39.2530989 L130.27164,28.3050771 C132.150612,29.5235076 134.391096,30.1617331 136.83242,30.1617331 C143.103097,30.1617331 148.324942,25.6584497 148.324942,19.0664285 C148.324942,12.4565547 143.103097,7.9443452 136.83242,7.9443452" id="Fill-33"></path>
                                <path d="M35.1059722,25.6968325 L35.0256361,25.6968325 L34.9810049,25.6968325 C31.0980947,25.6968325 28.4291517,22.733324 28.4291517,19.0824957 C28.4291517,15.4584461 31.0980947,12.4547695 34.9810049,12.4547695 L35.0256361,12.4547695 L35.1059722,12.4547695 C39.0067349,12.4547695 41.6846041,15.4584461 41.6846041,19.0824957 C41.6846041,22.733324 39.0067349,25.6968325 35.1059722,25.6968325 M35.0256361,7.83544519 C28.6924755,7.83544519 23.4170733,12.4146015 23.4170733,19.0824957 C23.4170733,25.7727055 28.6924755,30.3429355 35.0256361,30.3429355 C37.498202,30.3429355 39.7699276,29.6556158 41.6846041,28.4327222 L41.6846041,30.3429355 L46.6966826,30.3429355 L46.6966826,19.0824957 C46.6966826,12.4547695 41.4123541,7.83544519 35.0256361,7.83544519" id="Fill-18"></path>
                                <path d="M59.923571,7.98362061 C57.9642634,7.98362061 56.1567017,8.53704691 54.5946114,9.45644866 L54.5946114,7.83633781 L49.5021968,7.83633781 L49.5021968,18.4005317 L49.5021968,21.1765894 L49.5021968,30.3438282 L54.5946114,30.3438282 L54.5946114,21.1765894 L54.5946114,18.4005317 C54.5946114,15.4950436 56.9734518,13.107277 59.923571,13.107277 C62.8558377,13.107277 65.225752,15.4950436 65.225752,18.4005317 L65.225752,30.3438282 L70.3494083,30.3438282 L70.3494083,18.4005317 C70.3494083,12.6743548 65.6408217,7.98362061 59.923571,7.98362061" id="Fill-20"></path>
                                <path d="M10.3276488,26.0279957 C13.4161245,26.0279957 15.4289895,24.376643 15.4289895,21.6675321 C15.4289895,19.0655359 13.6883746,17.2178061 10.5017103,17.2178061 L5.09687765,17.2178061 L5.09687765,26.0279957 L10.3276488,26.0279957 Z M9.76975935,12.8885843 C12.7689728,12.8885843 14.5809976,11.1836743 14.5809976,8.64862479 C14.5809976,6.05555481 12.7689728,4.43098085 9.63140278,4.43098085 L5.09687765,4.43098085 L5.09687765,12.8885843 L9.76975935,12.8885843 Z M10.4615422,0.0348122992 C16.2948339,0.0348122992 19.7180433,3.47141107 19.7180433,8.21570261 C19.7180433,11.4336087 17.8346087,13.8303016 15.2281493,14.7854083 C18.4326661,15.6334002 20.6552975,18.4183841 20.6552975,22.0290444 C20.6552975,26.9161556 16.8884282,30.4018487 11.2247349,30.4018487 L0,30.4018487 L0,0.0348122992 L10.4615422,0.0348122992 Z" id="Fill-22"></path>
                                <path d="M212.314411,28.0631763 L212.559882,28.0631763 C212.858911,28.0631763 213.059751,27.9962295 213.059751,27.7552213 C213.059751,27.5365287 212.912468,27.3847827 212.582198,27.3847827 C212.430452,27.3847827 212.354579,27.4070983 212.314411,27.4249508 L212.314411,28.0631763 Z M212.265316,29.3887215 L211.752058,29.3887215 L211.752058,27.1080696 C211.966288,27.0500491 212.265316,27.0232704 212.626829,27.0232704 C213.059751,27.0232704 213.247202,27.1080696 213.421263,27.2062581 C213.537304,27.3044467 213.639956,27.474045 213.639956,27.6882746 C213.639956,27.9515984 213.434653,28.1524386 213.157939,28.2238484 L213.157939,28.2640164 C213.394485,28.3220369 213.523915,28.4960984 213.577472,28.8352952 C213.639956,29.1477133 213.70244,29.3083854 213.751534,29.3887215 L213.193644,29.3887215 C213.099919,29.3083854 213.059751,29.0896928 213.006194,28.8352952 C212.952636,28.5808976 212.805353,28.4336148 212.54203,28.4336148 L212.265316,28.4336148 L212.265316,29.3887215 Z M210.877288,28.1792173 C210.877288,29.2012707 211.636017,29.9912421 212.640218,29.9912421 C213.639956,29.9912421 214.394222,29.2012707 214.394222,28.1792173 C214.394222,27.1839426 213.639956,26.3627293 212.640218,26.3627293 C211.636017,26.3627293 210.877288,27.1839426 210.877288,28.1792173 L210.877288,28.1792173 Z M214.974427,28.1792173 C214.974427,29.4645945 213.9613,30.4821847 212.640218,30.4821847 C211.332525,30.4821847 210.301546,29.4645945 210.301546,28.1792173 C210.301546,26.9161556 211.332525,25.9119547 212.640218,25.9119547 C213.9613,25.9119547 214.974427,26.9161556 214.974427,28.1792173 L214.974427,28.1792173 Z" id="Fill-24"></path>
                                <path d="M161.742405,25.6182817 L161.675458,25.6182817 L161.626364,25.6182817 C157.779159,25.6182817 155.128068,22.6592363 155.128068,19.0664285 C155.128068,15.4736207 157.779159,12.4877966 161.626364,12.4877966 L161.675458,12.4877966 L161.742405,12.4877966 C165.576221,12.4877966 168.213922,15.4736207 168.213922,19.0664285 C168.213922,22.6592363 165.576221,25.6182817 161.742405,25.6182817 M161.675458,7.9443452 C155.404781,7.9443452 150.1874,12.4877966 150.1874,19.0664285 L150.1874,39.2530989 L155.128068,39.2530989 L155.128068,28.3050771 C157.002577,29.5235076 159.247524,30.1617331 161.675458,30.1617331 C167.968451,30.1617331 173.16798,25.6584497 173.18137,19.0664285 C173.16798,12.4565547 167.968451,7.9443452 161.675458,7.9443452" id="Fill-31"></path>
                                <path d="M179.398936,16.8661126 C179.398936,14.8889526 181.933985,12.1798416 185.388436,12.1798416 C187.642309,12.1798416 190.62367,13.8892148 190.62367,16.8661126 L179.398936,16.8661126 Z M185.080481,7.9443452 C179.265042,7.9443452 174.409173,12.4565547 174.409173,19.0664285 C174.409173,25.6584497 179.265042,30.1617331 185.080481,30.1617331 C188.584027,30.1617331 192.261634,29.0861223 194.212015,26.3413064 L191.315453,23.4179659 C190.043465,24.8863308 188.10201,25.8101957 185.687465,25.8101957 C181.867038,25.8101957 179.30521,23.5563225 179.30521,20.3785844 L195.666991,20.3785844 C195.689306,19.9501253 195.733937,19.4904244 195.733937,19.0664285 C195.733937,12.4565547 191.592166,7.9443452 185.080481,7.9443452 L185.080481,7.9443452 Z" id="Fill-35"></path>
                                <path d="M202.538403,19.0673211 L202.538403,0.331163154 L197.588808,0.331163154 L197.588808,19.0673211 C197.588808,25.5968588 202.690149,30.0912158 208.88049,30.1581626 L208.88049,25.6191743 C205.135936,25.5343751 202.538403,22.5976453 202.538403,19.0673211" id="Fill-37"></path>
                            </g>
                        </g>
                        <g id="Group-2" transform="translate(8.000000, 17.000000)" fill="#FFDC46">
                            <path d="M13.4122023,16.7801699 C11.9514027,16.7801699 10.7660534,15.6238421 10.7660534,14.1966396 C10.7660534,12.7707149 11.9514027,11.6079985 13.4122023,11.6079985 C14.8625582,11.6079985 16.0518239,12.7707149 16.0518239,14.1966396 C16.0518239,15.6238421 14.8625582,16.7801699 13.4122023,16.7801699 Z M3.28581985,10.0006389 C3.28581985,8.5734364 4.47247469,7.41327541 5.92935787,7.41327541 C7.39015739,7.41327541 8.57420134,8.5734364 8.57420134,10.0006389 C8.57420134,11.4265636 7.39015739,12.5867246 5.92935787,12.5867246 C4.47247469,12.5867246 3.28581985,11.4265636 3.28581985,10.0006389 Z M13.4122023,3.21599693 C14.8625582,3.21599693 16.0518239,4.37743564 16.0518239,5.80463809 C16.0518239,7.22928512 14.8625582,8.39200153 13.4122023,8.39200153 C11.9514027,8.39200153 10.7660534,7.22928512 10.7660534,5.80463809 C10.7660534,4.37743564 11.9514027,3.21599693 13.4122023,3.21599693 Z M53,7.47588322 L19.0869972,7.47588322 C19.2540949,6.94435571 19.3402547,6.38471858 19.3402547,5.80463809 C19.3402547,2.60525139 16.6784404,0 13.4122023,0 C10.6198429,0 8.27916944,1.89995528 7.65255302,4.44259886 C7.10426365,4.28544049 6.52986527,4.19472306 5.92935787,4.19472306 C2.66442523,4.19472306 0,6.79869674 0,10.0006389 C0,13.2000256 2.66442523,15.8065547 5.92935787,15.8065547 C6.52986527,15.8065547 7.10426365,15.7132818 7.65255302,15.5574011 C8.27916944,18.1013224 10.6198429,20 13.4122023,20 C16.6784404,20 19.3402547,17.3960263 19.3402547,14.1966396 C19.3402547,13.6152814 19.2540949,13.0556443 19.0869972,12.5266722 L42.0864307,12.5266722 L42.0864307,19.4901936 L44.8422375,19.4901936 L44.8422375,16.0071552 L47.5040518,16.0071552 L47.5040518,19.483805 L50.2507205,19.483805 L50.2507205,12.5266722 L53,12.5266722 L53,7.47588322 Z" id="Fill-4"></path>
                        </g>
                    </g>
                    <mask id="mask-2" fill="white">
                        <use xlink:href="#path-1"></use>
                    </mask>
                    <g id="Clip-2"></g>
                </g>
            </g>
        </g>
    </g>
</svg>