<?xml version="1.0" encoding="UTF-8"?>
<svg width="73px" height="24px" viewBox="0 0 73 24" version="1.1" xmlns="http://www.w3.org/2000/svg" xmlns:xlink="http://www.w3.org/1999/xlink">
    <!-- Generator: Sketch 49 (51002) - http://www.bohemiancoding.com/sketch -->
    <title>logo_app_store</title>
    <desc>Created with Sketch.</desc>
    <defs></defs>
    <g id="Final" stroke="none" stroke-width="1" fill="none" fill-rule="evenodd">
        <g id="logo_app_store" transform="translate(1.000000, 0.000000)">
            <path d="M4.586,23.2384 C4.403,23.2384 4.224,23.2364 4.043,23.2324 C3.706,23.2224 3.308,23.2034 2.919,23.1344 C2.552,23.0674 2.226,22.9594 1.923,22.8044 C1.61,22.6454 1.328,22.4404 1.084,22.1934 C0.835,21.9494 0.63,21.6694 0.471,21.3544 C0.315,21.0514 0.208,20.7254 0.144,20.3584 C0.071,19.9544 0.052,19.5434 0.044,19.2314 C0.04,19.1044 0.035,18.6824 0.035,18.6824 L0.035,4.7994 C0.035,4.7994 0.041,4.3834 0.044,4.2614 C0.052,3.9464 0.071,3.5364 0.144,3.1364 C0.208,2.7674 0.314,2.4424 0.47,2.1374 C0.63,1.8224 0.835,1.5404 1.08,1.2974 C1.329,1.0484 1.612,0.8424 1.923,0.6824 C2.232,0.5264 2.557,0.4194 2.917,0.3564 C3.321,0.2834 3.732,0.2654 4.044,0.2574 L4.586,0.2504 L66.351,0.2504 L66.899,0.2574 C67.208,0.2654 67.618,0.2834 68.016,0.3554 C68.378,0.4184 68.706,0.5264 69.021,0.6844 C69.329,0.8424 69.611,1.0484 69.857,1.2954 C70.103,1.5394 70.309,1.8224 70.472,2.1394 C70.627,2.4464 70.733,2.7714 70.794,3.1304 C70.863,3.5094 70.885,3.8984 70.898,4.2644 C70.9,4.4344 70.9,4.6174 70.9,4.7994 C70.905,5.0244 70.905,5.2394 70.905,5.4554 L70.905,18.0334 C70.905,18.2524 70.905,18.4654 70.9,18.6794 C70.9,18.8754 70.9,19.0544 70.897,19.2384 C70.885,19.5924 70.863,19.9814 70.795,20.3524 C70.733,20.7214 70.627,21.0464 70.47,21.3564 C70.308,21.6684 70.102,21.9504 69.86,22.1894 C69.612,22.4404 69.33,22.6454 69.019,22.8034 C68.707,22.9624 68.389,23.0674 68.016,23.1344 C67.631,23.2034 67.233,23.2224 66.893,23.2324 C66.717,23.2364 66.533,23.2384 66.354,23.2384 L65.702,23.2394 L4.586,23.2384 Z" id="Fill-39"></path>
            <path d="M4.586,23.2384 C4.403,23.2384 4.224,23.2364 4.043,23.2324 C3.706,23.2224 3.308,23.2034 2.919,23.1344 C2.552,23.0674 2.226,22.9594 1.923,22.8044 C1.61,22.6454 1.328,22.4404 1.084,22.1934 C0.835,21.9494 0.63,21.6694 0.471,21.3544 C0.315,21.0514 0.208,20.7254 0.144,20.3584 C0.071,19.9544 0.052,19.5434 0.044,19.2314 C0.04,19.1044 0.035,18.6824 0.035,18.6824 L0.035,4.7994 C0.035,4.7994 0.041,4.3834 0.044,4.2614 C0.052,3.9464 0.071,3.5364 0.144,3.1364 C0.208,2.7674 0.314,2.4424 0.47,2.1374 C0.63,1.8224 0.835,1.5404 1.08,1.2974 C1.329,1.0484 1.612,0.8424 1.923,0.6824 C2.232,0.5264 2.557,0.4194 2.917,0.3564 C3.321,0.2834 3.732,0.2654 4.044,0.2574 L4.586,0.2504 L66.351,0.2504 L66.899,0.2574 C67.208,0.2654 67.618,0.2834 68.016,0.3554 C68.378,0.4184 68.706,0.5264 69.021,0.6844 C69.329,0.8424 69.611,1.0484 69.857,1.2954 C70.103,1.5394 70.309,1.8224 70.472,2.1394 C70.627,2.4464 70.733,2.7714 70.794,3.1304 C70.863,3.5094 70.885,3.8984 70.898,4.2644 C70.9,4.4344 70.9,4.6174 70.9,4.7994 C70.905,5.0244 70.905,5.2394 70.905,5.4554 L70.905,18.0334 C70.905,18.2524 70.905,18.4654 70.9,18.6794 C70.9,18.8754 70.9,19.0544 70.897,19.2384 C70.885,19.5924 70.863,19.9814 70.795,20.3524 C70.733,20.7214 70.627,21.0464 70.47,21.3564 C70.308,21.6684 70.102,21.9504 69.86,22.1894 C69.612,22.4404 69.33,22.6454 69.019,22.8034 C68.707,22.9624 68.389,23.0674 68.016,23.1344 C67.631,23.2034 67.233,23.2224 66.893,23.2324 C66.717,23.2364 66.533,23.2384 66.354,23.2384 L65.702,23.2394 L4.586,23.2384 Z" id="Stroke-40" stroke="#0070C6" stroke-width="0.5"></path>
            <path d="M14.3968,11.9249 C14.3818,10.2719 15.7508,9.4669 15.8128,9.4299 C15.0378,8.2989 13.8368,8.1449 13.4148,8.1329 C12.4048,8.0269 11.4268,8.7369 10.9128,8.7369 C10.3878,8.7369 9.5968,8.1429 8.7438,8.1609 C7.6458,8.1779 6.6188,8.8129 6.0558,9.7999 C4.8928,11.8129 5.7598,14.7699 6.8738,16.3969 C7.4308,17.1939 8.0818,18.0829 8.9338,18.0519 C9.7668,18.0169 10.0788,17.5199 11.0848,17.5199 C12.0818,17.5199 12.3738,18.0519 13.2428,18.0319 C14.1378,18.0169 14.7008,17.2319 15.2388,16.4279 C15.8828,15.5139 16.1408,14.6149 16.1508,14.5689 C16.1308,14.5619 14.4138,13.9069 14.3968,11.9249" id="Fill-41" fill="#0070C5"></path>
            <path d="M12.7551,7.0629 C13.2031,6.5019 13.5101,5.7389 13.4251,4.9649 C12.7761,4.9939 11.9641,5.4139 11.4971,5.9629 C11.0841,6.4459 10.7141,7.2379 10.8101,7.9829 C11.5391,8.0369 12.2871,7.6149 12.7551,7.0629" id="Fill-42" fill="#0070C5"></path>
            <path d="M22.3843,15.1043 L24.6393,15.1043 L23.5273,11.8303 L23.4963,11.8303 L22.3843,15.1043 Z M24.9343,16.0353 L22.0893,16.0353 L21.4063,18.0523 L20.2013,18.0523 L22.8963,10.5893 L24.1483,10.5893 L26.8423,18.0523 L25.6173,18.0523 L24.9343,16.0353 Z" id="Fill-43" fill="#0070C5"></path>
            <path d="M31.5138,15.332 C31.5138,14.23 30.9448,13.506 30.0758,13.506 C29.2228,13.506 28.6488,14.246 28.6488,15.332 C28.6488,16.428 29.2228,17.163 30.0758,17.163 C30.9448,17.163 31.5138,16.444 31.5138,15.332 M32.6618,15.332 C32.6618,17.023 31.7568,18.109 30.3908,18.109 C29.6158,18.109 28.9998,17.762 28.6788,17.157 L28.6528,17.157 L28.6528,19.852 L27.5358,19.852 L27.5358,12.611 L28.6178,12.611 L28.6178,13.516 L28.6378,13.516 C28.9488,12.932 29.6108,12.554 30.3708,12.554 C31.7518,12.554 32.6618,13.646 32.6618,15.332" id="Fill-44" fill="#0070C5"></path>
            <path d="M37.5027,15.332 C37.5027,14.23 36.9337,13.506 36.0647,13.506 C35.2117,13.506 34.6377,14.246 34.6377,15.332 C34.6377,16.428 35.2117,17.163 36.0647,17.163 C36.9337,17.163 37.5027,16.444 37.5027,15.332 M38.6507,15.332 C38.6507,17.023 37.7457,18.109 36.3797,18.109 C35.6047,18.109 34.9887,17.762 34.6677,17.157 L34.6417,17.157 L34.6417,19.852 L33.5247,19.852 L33.5247,12.611 L34.6067,12.611 L34.6067,13.516 L34.6267,13.516 C34.9377,12.932 35.5997,12.554 36.3597,12.554 C37.7407,12.554 38.6507,13.646 38.6507,15.332" id="Fill-45" fill="#0070C5"></path>
            <path d="M42.6089,15.9729 C42.6919,16.7129 43.4109,17.1989 44.3929,17.1989 C45.3349,17.1989 46.0119,16.7129 46.0119,16.0459 C46.0119,15.4659 45.6029,15.1199 44.6359,14.8819 L43.6689,14.6489 C42.2989,14.3179 41.6619,13.6769 41.6619,12.6369 C41.6619,11.3489 42.7839,10.4649 44.3779,10.4649 C45.9549,10.4649 47.0359,11.3489 47.0729,12.6369 L45.9449,12.6369 C45.8779,11.8919 45.2619,11.4429 44.3619,11.4429 C43.4619,11.4429 42.8469,11.8969 42.8469,12.5589 C42.8469,13.0869 43.2399,13.3979 44.2019,13.6349 L45.0239,13.8369 C46.5549,14.1989 47.1919,14.8139 47.1919,15.9059 C47.1919,17.3019 46.0789,18.1769 44.3099,18.1769 C42.6549,18.1769 41.5379,17.3229 41.4659,15.9729 L42.6089,15.9729 Z" id="Fill-46" fill="#0070C5"></path>
            <path d="M49.602,11.3234 L49.602,12.6114 L50.637,12.6114 L50.637,13.4954 L49.602,13.4954 L49.602,16.4954 C49.602,16.9614 49.809,17.1784 50.264,17.1784 C50.378,17.1784 50.559,17.1624 50.631,17.1524 L50.631,18.0314 C50.508,18.0634 50.259,18.0834 50.011,18.0834 C48.909,18.0834 48.48,17.6694 48.48,16.6144 L48.48,13.4954 L47.689,13.4954 L47.689,12.6114 L48.48,12.6114 L48.48,11.3234 L49.602,11.3234 Z" id="Fill-47" fill="#0070C5"></path>
            <path d="M55.2599,15.332 C55.2599,14.158 54.7219,13.464 53.8169,13.464 C52.9119,13.464 52.3739,14.163 52.3739,15.332 C52.3739,16.511 52.9119,17.199 53.8169,17.199 C54.7219,17.199 55.2599,16.511 55.2599,15.332 M51.2359,15.332 C51.2359,13.62 52.2439,12.544 53.8169,12.544 C55.3939,12.544 56.3979,13.62 56.3979,15.332 C56.3979,17.049 55.3999,18.12 53.8169,18.12 C52.2339,18.12 51.2359,17.049 51.2359,15.332" id="Fill-48" fill="#0070C5"></path>
            <path d="M57.3188,12.6111 L58.3838,12.6111 L58.3838,13.5371 L58.4098,13.5371 C58.5808,12.9211 59.0768,12.5541 59.7188,12.5541 C59.8788,12.5541 60.0138,12.5751 60.1018,12.5961 L60.1018,13.6401 C60.0138,13.6041 59.8168,13.5731 59.5998,13.5731 C58.8808,13.5731 58.4358,14.0601 58.4358,14.8251 L58.4358,18.0521 L57.3188,18.0521 L57.3188,12.6111 Z" id="Fill-49" fill="#0070C5"></path>
            <path d="M61.4754,14.8302 L64.1954,14.8302 C64.1704,13.9972 63.6374,13.4492 62.8614,13.4492 C62.0904,13.4492 61.5324,14.0082 61.4754,14.8302 Z M65.2514,16.4542 C65.1004,17.4422 64.1384,18.1202 62.9084,18.1202 C61.3254,18.1202 60.3424,17.0592 60.3424,15.3582 C60.3424,13.6512 61.3304,12.5442 62.8614,12.5442 C64.3664,12.5442 65.3134,13.5782 65.3134,15.2282 L65.3134,15.6112 L61.4704,15.6112 L61.4704,15.6782 C61.4704,16.6092 62.0544,17.2192 62.9334,17.2192 C63.5544,17.2192 64.0404,16.9252 64.1904,16.4542 L65.2514,16.4542 Z" id="Fill-50" fill="#0070C5"></path>
            <path d="M21.5059,8.0504 L22.1819,8.0504 C22.9319,8.0504 23.3649,7.5834 23.3649,6.7604 C23.3649,5.9504 22.9249,5.4784 22.1819,5.4784 L21.5059,5.4784 L21.5059,8.0504 Z M22.2439,4.9714 C23.3079,4.9714 23.9319,5.6254 23.9319,6.7534 C23.9319,7.8994 23.3129,8.5574 22.2439,8.5574 L20.9489,8.5574 L20.9489,4.9714 L22.2439,4.9714 Z" id="Fill-51" fill="#0070C5"></path>
            <path d="M25.1049,6.9546 L26.4719,6.9546 C26.4599,6.5296 26.2009,6.2536 25.8059,6.2536 C25.4109,6.2536 25.1349,6.5316 25.1049,6.9546 Z M26.9839,7.8266 C26.8619,8.3116 26.4299,8.6096 25.8109,8.6096 C25.0359,8.6096 24.5609,8.0776 24.5609,7.2126 C24.5609,6.3476 25.0459,5.7986 25.8089,5.7986 C26.5619,5.7986 27.0159,6.3136 27.0159,7.1636 L27.0159,7.3496 L25.1049,7.3496 L25.1049,7.3796 C25.1229,7.8536 25.3979,8.1546 25.8259,8.1546 C26.1489,8.1546 26.3699,8.0376 26.4699,7.8266 L26.9839,7.8266 Z" id="Fill-52" fill="#0070C5"></path>
            <path d="M28.7221,5.799 C29.3311,5.799 29.7291,6.082 29.7811,6.559 L29.2681,6.559 C29.2191,6.361 29.0251,6.234 28.7221,6.234 C28.4241,6.234 28.1971,6.375 28.1971,6.587 C28.1971,6.748 28.3341,6.85 28.6281,6.917 L29.0771,7.022 C29.5921,7.141 29.8331,7.362 29.8331,7.76 C29.8331,8.269 29.3581,8.61 28.7121,8.61 C28.0681,8.61 27.6491,8.319 27.6011,7.839 L28.1361,7.839 C28.2031,8.048 28.4021,8.177 28.7241,8.177 C29.0571,8.177 29.2941,8.028 29.2941,7.812 C29.2941,7.65 29.1671,7.546 28.8961,7.481 L28.4241,7.372 C27.9091,7.25 27.6711,7.019 27.6711,6.617 C27.6711,6.137 28.1101,5.799 28.7221,5.799" id="Fill-53" fill="#0070C5"></path>
            <path d="M32.3246,6.7357 C32.2626,6.4727 32.0436,6.2757 31.6856,6.2757 C31.2386,6.2757 30.9646,6.6187 30.9646,7.1957 C30.9646,7.7817 31.2406,8.1327 31.6856,8.1327 C32.0236,8.1327 32.2546,7.9787 32.3246,7.6877 L32.8436,7.6877 C32.7746,8.2317 32.3566,8.6097 31.6886,8.6097 C30.9006,8.6097 30.4186,8.0777 30.4186,7.1957 C30.4186,6.3287 30.8976,5.7987 31.6856,5.7987 C32.3636,5.7987 32.7746,6.1937 32.8436,6.7357 L32.3246,6.7357 Z" id="Fill-54" fill="#0070C5"></path>
            <path d="M34.2638,5.3987 L34.8878,4.5437 L35.5138,4.5437 L34.8158,5.3987 L34.2638,5.3987 Z M35.1138,7.5607 L35.1138,7.3347 L34.4528,7.3767 C34.0798,7.4017 33.9108,7.5287 33.9108,7.7677 C33.9108,8.0107 34.1228,8.1527 34.4128,8.1527 C34.8158,8.1527 35.1138,7.8967 35.1138,7.5607 Z M33.3738,7.7917 C33.3738,7.3047 33.7368,7.0237 34.3808,6.9847 L35.1138,6.9417 L35.1138,6.7087 C35.1138,6.4227 34.9248,6.2607 34.5598,6.2607 C34.2618,6.2607 34.0548,6.3707 33.9958,6.5617 L33.4788,6.5617 C33.5328,6.0967 33.9708,5.7987 34.5838,5.7987 C35.2628,5.7987 35.6458,6.1367 35.6458,6.7087 L35.6458,8.5577 L35.1308,8.5577 L35.1308,8.1767 L35.0888,8.1767 C34.9278,8.4477 34.6318,8.6017 34.2758,8.6017 C33.7548,8.6017 33.3738,8.2867 33.3738,7.7917 Z" id="Fill-55" fill="#0070C5"></path>
            <path d="M36.4818,5.8512 L36.9958,5.8512 L36.9958,6.2662 L37.0358,6.2662 C37.1128,6.0002 37.4128,5.8062 37.7668,5.8062 C37.8458,5.8062 37.9478,5.8132 38.0048,5.8282 L38.0048,6.3552 C37.9598,6.3412 37.8008,6.3232 37.7068,6.3232 C37.3018,6.3232 37.0158,6.5792 37.0158,6.9592 L37.0158,8.5572 L36.4818,8.5572 L36.4818,5.8512 Z" id="Fill-56" fill="#0070C5"></path>
            <path d="M40.3921,7.1706 C40.3921,6.6316 40.1131,6.2866 39.6581,6.2866 C39.1991,6.2866 38.9411,6.6316 38.9411,7.1706 C38.9411,7.7096 39.1991,8.0556 39.6581,8.0556 C40.1161,8.0556 40.3921,7.7126 40.3921,7.1706 M38.4951,8.8286 L39.0421,8.8286 C39.0871,9.0246 39.3131,9.1516 39.6741,9.1516 C40.1191,9.1516 40.3821,8.9406 40.3821,8.5826 L40.3821,8.0626 L40.3421,8.0626 C40.1781,8.3566 39.8801,8.5176 39.5071,8.5176 C38.8161,8.5176 38.3891,7.9836 38.3891,7.1736 C38.3891,6.3476 38.8211,5.8066 39.5121,5.8066 C39.8851,5.8066 40.2101,5.9906 40.3621,6.2836 L40.4041,6.2836 L40.4041,5.8516 L40.9161,5.8516 L40.9161,8.5796 C40.9161,9.1986 40.4311,9.5916 39.6661,9.5916 C38.9901,9.5916 38.5521,9.2886 38.4951,8.8286" id="Fill-57" fill="#0070C5"></path>
            <path d="M43.3525,7.5609 L43.3525,7.3349 L42.6915,7.3769 C42.3185,7.4019 42.1495,7.5289 42.1495,7.7669 C42.1495,8.0109 42.3615,8.1529 42.6515,8.1529 C43.0545,8.1529 43.3525,7.8959 43.3525,7.5609 M41.6125,7.7919 C41.6125,7.3049 41.9755,7.0239 42.6195,6.9839 L43.3525,6.9419 L43.3525,6.7079 C43.3525,6.4229 43.1635,6.2609 42.7985,6.2609 C42.5005,6.2609 42.2935,6.3709 42.2345,6.5619 L41.7175,6.5619 C41.7715,6.0969 42.2095,5.7989 42.8235,5.7989 C43.5015,5.7989 43.8845,6.1369 43.8845,6.7079 L43.8845,8.5579 L43.3705,8.5579 L43.3705,8.1769 L43.3275,8.1769 C43.1665,8.4479 42.8705,8.6019 42.5145,8.6019 C41.9935,8.6019 41.6125,8.2869 41.6125,7.7919" id="Fill-58" fill="#0070C5"></path>
            <polygon id="Fill-59" fill="#0070C5" points="44.745 8.5574 45.279 8.5574 45.279 4.7944 44.745 4.7944"></polygon>
            <path d="M48.025,7.2032 C48.025,6.6162 47.761,6.2732 47.299,6.2732 C46.835,6.2732 46.574,6.6162 46.574,7.2032 C46.574,7.7942 46.835,8.1352 47.299,8.1352 C47.761,8.1352 48.025,7.7922 48.025,7.2032 M46.022,7.2032 C46.022,6.3312 46.509,5.7992 47.299,5.7992 C48.087,5.7992 48.574,6.3312 48.574,7.2032 C48.574,8.0802 48.09,8.6102 47.299,8.6102 C46.507,8.6102 46.022,8.0802 46.022,7.2032" id="Fill-60" fill="#0070C5"></path>
            <path d="M51.1691,6.9546 L52.5361,6.9546 C52.5241,6.5296 52.2651,6.2536 51.8701,6.2536 C51.4751,6.2536 51.1991,6.5316 51.1691,6.9546 Z M53.0481,7.8266 C52.9261,8.3116 52.4941,8.6096 51.8751,8.6096 C51.1001,8.6096 50.6251,8.0776 50.6251,7.2126 C50.6251,6.3476 51.1101,5.7986 51.8731,5.7986 C52.6261,5.7986 53.0801,6.3136 53.0801,7.1636 L53.0801,7.3496 L51.1691,7.3496 L51.1691,7.3796 C51.1871,7.8536 51.4621,8.1546 51.8901,8.1546 C52.2131,8.1546 52.4341,8.0376 52.5341,7.8266 L53.0481,7.8266 Z" id="Fill-61" fill="#0070C5"></path>
            <path d="M53.7973,5.8512 L54.3113,5.8512 L54.3113,6.2812 L54.3513,6.2812 C54.4833,5.9802 54.7513,5.7992 55.1593,5.7992 C55.7633,5.7992 56.0953,6.1612 56.0953,6.8052 L56.0953,8.5572 L55.5613,8.5572 L55.5613,6.9392 C55.5613,6.5052 55.3723,6.2882 54.9773,6.2882 C54.5823,6.2882 54.3313,6.5522 54.3313,6.9742 L54.3313,8.5572 L53.7973,8.5572 L53.7973,5.8512 Z" id="Fill-62" fill="#0070C5"></path>
            <path d="M58.7996,6.9546 L60.1666,6.9546 C60.1546,6.5296 59.8956,6.2536 59.5006,6.2536 C59.1056,6.2536 58.8296,6.5316 58.7996,6.9546 Z M60.6786,7.8266 C60.5566,8.3116 60.1246,8.6096 59.5056,8.6096 C58.7306,8.6096 58.2556,8.0776 58.2556,7.2126 C58.2556,6.3476 58.7406,5.7986 59.5036,5.7986 C60.2566,5.7986 60.7106,6.3136 60.7106,7.1636 L60.7106,7.3496 L58.7996,7.3496 L58.7996,7.3796 C58.8176,7.8536 59.0926,8.1546 59.5206,8.1546 C59.8436,8.1546 60.0646,8.0376 60.1646,7.8266 L60.6786,7.8266 Z" id="Fill-63" fill="#0070C5"></path>
            <polygon id="Fill-64" fill="#0070C5" points="61.452 8.5574 61.986 8.5574 61.986 4.7944 61.452 4.7944"></polygon>
        </g>
    </g>
</svg>